<?xml version="1.0" standalone="no"?>
<!DOCTYPE svg PUBLIC "-//W3C//DTD SVG 20010904//EN"
 "http://www.w3.org/TR/2001/REC-SVG-20010904/DTD/svg10.dtd">
<svg version="1.0" xmlns="http://www.w3.org/2000/svg"
 width="118.000000pt" height="118.000000pt" viewBox="0 0 118.000000 118.000000"
 preserveAspectRatio="xMidYMid meet">
<metadata>
Created by potrace 1.14, written by Peter Selinger 2001-2017
</metadata>
<g transform="translate(0.000000,118.000000) scale(0.100000,-0.100000)"
fill="#000000" stroke="none">
<path d="M442 1150 c-261 -69 -434 -292 -434 -560 0 -308 234 -557 542 -577
326 -21 611 246 611 573 0 379 -357 659 -719 564z m112 -82 c-3 -35 -7 -74 -8
-88 -1 -28 -19 -39 -52 -32 l-22 4 19 55 c18 52 55 123 65 123 3 0 2 -28 -2
-62z m126 -64 c14 -48 11 -57 -20 -59 -31 -2 -37 12 -44 105 l-6 85 29 -44
c16 -24 35 -63 41 -87z m-206 49 c-13 -32 -24 -66 -24 -75 0 -9 -5 -20 -11
-23 -12 -8 -69 -13 -69 -7 0 16 76 125 98 141 15 11 28 21 28 21 1 0 -9 -26
-22 -57z m253 7 c12 -14 33 -45 47 -71 l25 -45 -30 2 c-38 3 -39 3 -65 72 -12
31 -25 66 -29 77 -8 18 -7 19 10 5 11 -8 29 -26 42 -40z m-334 -12 c-19 -29
-39 -63 -43 -74 -6 -15 -19 -23 -44 -26 -20 -2 -36 -2 -36 0 0 13 62 81 105
113 27 21 51 39 52 39 1 0 -14 -24 -34 -52z m459 -42 c42 -45 44 -59 9 -61
-15 -1 -28 7 -38 24 -9 14 -32 51 -51 81 l-35 55 39 -29 c21 -16 56 -48 76
-70z m-555 24 c-59 -66 -90 -120 -124 -216 -25 -72 -27 -91 -27 -224 0 -131 2
-152 26 -221 33 -95 77 -171 131 -228 l42 -44 -41 24 c-101 60 -184 155 -229
267 -82 202 -31 439 129 595 34 33 122 96 134 97 2 0 -16 -23 -41 -50z m292
-22 c0 -40 -3 -65 -7 -56 -7 17 -4 128 4 128 2 0 4 -33 3 -72z m346 1 c151
-121 223 -328 185 -530 -23 -119 -110 -256 -209 -327 -78 -57 -88 -57 -38 -3
205 229 205 651 -1 882 -46 52 -46 53 -12 32 19 -12 53 -37 75 -54z m-676
-211 c0 -68 4 -124 8 -125 5 -2 8 -45 7 -96 -2 -165 47 -344 123 -451 l35 -49
-47 34 c-77 55 -141 145 -175 245 -32 92 -35 111 -34 244 0 94 4 139 18 180
17 52 56 140 62 140 2 0 3 -55 3 -122z m717 -25 c25 -91 26 -253 3 -347 -33
-135 -110 -256 -208 -326 -19 -13 -32 -19 -28 -14 3 6 22 34 41 62 48 72 77
152 102 282 3 19 7 81 8 137 1 57 6 106 9 110 4 3 7 61 7 127 l1 121 25 -47
c13 -26 31 -73 40 -105z m-591 -133 c17 -6 20 -17 21 -86 2 -181 28 -331 74
-439 11 -25 17 -45 15 -45 -3 0 -18 12 -34 28 -74 71 -132 216 -150 372 -11
93 -12 167 -4 183 4 7 37 1 78 -13z m479 -50 c-2 -163 -28 -282 -86 -392 -28
-53 -96 -133 -105 -124 -3 2 4 21 15 43 43 86 69 246 76 467 1 47 3 50 36 62
59 22 65 17 64 -56z m-417 -177 c-2 -16 -4 -5 -4 22 0 28 2 40 4 28 2 -13 2
-35 0 -50z m279 40 c-10 -10 -19 5 -10 18 6 11 8 11 12 0 2 -7 1 -15 -2 -18z
m1 -28 c0 -8 -4 -12 -9 -9 -5 3 -6 10 -3 15 9 13 12 11 12 -6z m-176 -269 c0
-28 3 -63 5 -78 16 -99 -69 79 -91 191 l-7 34 46 -48 c42 -44 46 -53 47 -99z
m143 72 c-14 -59 -55 -153 -76 -173 -7 -7 -8 4 -4 35 3 25 5 62 5 82 1 27 10
46 38 77 20 23 40 41 44 41 4 0 1 -28 -7 -62z m-107 -110 c-2 -13 -4 -5 -4 17
-1 22 1 32 4 23 2 -10 2 -28 0 -40z"/>
</g>
</svg>
