<?xml version="1.0" encoding="UTF-8"?>
<svg width="982px" height="361px" viewBox="0 0 982 361" version="1.1" xmlns="http://www.w3.org/2000/svg" xmlns:xlink="http://www.w3.org/1999/xlink">
    <title>Group</title>
    <g id="Page-1" stroke="none" stroke-width="1" fill="none" fill-rule="evenodd">
        <g id="Landing-04" transform="translate(-229.000000, -257.000000)">
            <g id="Group" transform="translate(231.000000, 257.296875)">
                <path d="M245.911809,359 L0,359 L0,29 L450.170985,29 M528.282882,29 L978,29 L978,359 L744.459098,359" id="Shape" stroke="#D19E30" stroke-width="3"></path>
                <g id="ovals" opacity="0.65342" transform="translate(460.000000, 0.000000)" fill="#D19E30">
                    <path d="M28.968,-7.10542736e-15 C36.967,-7.10542736e-15 44.21,3.243 49.452,8.485 C54.694,13.726 57.936,20.969 57.936,28.968 C57.936,36.967 54.694,44.21 49.452,49.452 C44.21,54.694 36.967,57.936 28.968,57.936 C20.969,57.936 13.727,54.694 8.485,49.452 C3.243,44.21 0,36.967 0,28.968 C0,20.969 3.243,13.726 8.485,8.485 C13.727,3.243 20.969,-7.10542736e-15 28.968,-7.10542736e-15 Z M48.364,9.572 C43.401,4.608 36.543,1.538 28.968,1.538 C21.393,1.538 14.536,4.608 9.572,9.572 C4.608,14.536 1.538,21.393 1.538,28.968 C1.538,36.543 4.608,43.4 9.572,48.364 C14.536,53.328 21.393,56.398 28.968,56.398 C36.543,56.398 43.401,53.328 48.364,48.364 C53.328,43.4 56.399,36.543 56.399,28.968 C56.399,21.393 53.328,14.536 48.364,9.572 L48.364,9.572 Z" id="Fill-2"></path>
                    <path d="M28.968,-7.10542736e-15 C35.168,-7.10542736e-15 40.768,3.272 44.809,8.563 C48.805,13.794 51.277,21.01 51.277,28.968 C51.277,36.927 48.805,44.142 44.809,49.374 C40.768,54.664 35.168,57.936 28.968,57.936 C22.768,57.936 17.168,54.664 13.127,49.374 C9.131,44.142 6.659,36.927 6.659,28.968 C6.659,21.01 9.131,13.794 13.127,8.563 C17.168,3.272 22.768,-7.10542736e-15 28.968,-7.10542736e-15 Z M43.59,9.494 C39.835,4.578 34.664,1.538 28.968,1.538 C23.272,1.538 18.102,4.578 14.347,9.494 C10.547,14.468 8.197,21.353 8.197,28.968 C8.197,36.583 10.547,43.468 14.347,48.442 C18.102,53.358 23.272,56.398 28.968,56.398 C34.664,56.398 39.835,53.358 43.59,48.442 C47.389,43.468 49.739,36.583 49.739,28.968 C49.739,21.353 47.389,14.468 43.59,9.494 L43.59,9.494 Z" id="Fill-3"></path>
                    <path d="M28.968,-7.10542736e-15 C33.385,-7.10542736e-15 37.343,3.314 40.17,8.671 C42.918,13.879 44.618,21.057 44.618,28.968 C44.618,36.88 42.918,44.057 40.17,49.265 C37.343,54.622 33.385,57.936 28.968,57.936 C24.551,57.936 20.594,54.622 17.767,49.265 C15.018,44.057 13.318,36.88 13.318,28.968 C13.318,21.057 15.018,13.879 17.767,8.671 C20.594,3.314 24.551,-7.10542736e-15 28.968,-7.10542736e-15 Z M38.812,9.386 C36.253,4.537 32.769,1.538 28.968,1.538 C25.167,1.538 21.683,4.537 19.125,9.386 C16.487,14.383 14.856,21.306 14.856,28.968 C14.856,36.63 16.487,43.553 19.125,48.55 C21.683,53.399 25.167,56.398 28.968,56.398 C32.769,56.398 36.253,53.399 38.812,48.55 C41.449,43.553 43.081,36.63 43.081,28.968 C43.081,21.306 41.449,14.383 38.812,9.386 L38.812,9.386 Z" id="Fill-4"></path>
                    <path d="M28.968,-7.10542736e-15 C31.621,-7.10542736e-15 33.93,3.369 35.518,8.815 C37.026,13.988 37.959,21.115 37.959,28.968 C37.959,36.821 37.026,43.948 35.518,49.121 C33.93,54.567 31.621,57.936 28.968,57.936 C26.315,57.936 24.006,54.567 22.418,49.121 C20.91,43.948 19.977,36.821 19.977,28.968 C19.977,21.115 20.91,13.988 22.418,8.815 C24.006,3.369 26.315,-7.10542736e-15 28.968,-7.10542736e-15 Z M34.046,9.242 C32.659,4.482 30.856,1.538 28.968,1.538 C27.081,1.538 25.278,4.482 23.89,9.242 C22.423,14.274 21.515,21.248 21.515,28.968 C21.515,36.689 22.423,43.662 23.89,48.695 C25.278,53.454 27.081,56.398 28.968,56.398 C30.856,56.398 32.659,53.454 34.046,48.695 C35.514,43.662 36.421,36.689 36.421,28.968 C36.421,21.248 35.514,14.274 34.046,9.242 L34.046,9.242 Z" id="Fill-5"></path>
                    <path d="M28.968,-7.10542736e-15 C29.883,-7.10542736e-15 30.532,3.434 30.839,8.987 C31.124,14.124 31.3,21.19 31.3,28.968 C31.3,36.746 31.124,43.812 30.839,48.95 C30.532,54.502 29.883,57.936 28.968,57.936 C28.053,57.936 27.405,54.502 27.097,48.95 C26.812,43.812 26.636,36.746 26.636,28.968 C26.636,21.19 26.812,14.124 27.097,8.987 C27.405,3.434 28.053,-7.10542736e-15 28.968,-7.10542736e-15 Z M29.308,9.071 C29.05,4.417 29.02,1.538 28.968,1.538 C28.916,1.538 28.887,4.417 28.629,9.071 C28.348,14.139 28.174,21.172 28.174,28.968 C28.174,36.764 28.348,43.797 28.629,48.866 C28.887,53.519 28.916,56.398 28.968,56.398 C29.02,56.398 29.05,53.519 29.308,48.866 C29.588,43.797 29.762,36.764 29.762,28.968 C29.762,21.172 29.588,14.139 29.308,9.071 L29.308,9.071 Z" id="Fill-6"></path>
                </g>
            </g>
        </g>
    </g>
</svg>