<?xml version="1.0" encoding="UTF-8"?>
<svg width="178px" height="58px" viewBox="0 0 178 58" version="1.1" xmlns="http://www.w3.org/2000/svg" xmlns:xlink="http://www.w3.org/1999/xlink">
    <title>logo</title>
    <g id="Page-1" stroke="none" stroke-width="1" fill="none" fill-rule="evenodd">
        <g id="Landing-04" transform="translate(-101.000000, -21.000000)">
            <g id="logo" transform="translate(101.000000, 21.000000)">
                <path d="M29.2,0.032 C37.199,0.032 44.442,3.275 49.683,8.517 C54.925,13.758 58.168,21.001 58.168,29 C58.168,36.999 54.925,44.242 49.683,49.484 C44.442,54.726 37.199,57.968 29.2,57.968 C21.201,57.968 13.958,54.726 8.717,49.484 C3.474,44.242 0.232,36.999 0.232,29 C0.232,21.001 3.474,13.758 8.717,8.517 C13.958,3.275 21.201,0.032 29.2,0.032 Z M48.596,9.604 C43.632,4.64 36.775,1.57 29.2,1.57 C21.625,1.57 14.768,4.64 9.804,9.604 C4.84,14.568 1.77,21.425 1.77,29 C1.77,36.575 4.84,43.432 9.804,48.396 C14.768,53.36 21.625,56.43 29.2,56.43 C36.775,56.43 43.632,53.36 48.596,48.396 C53.56,43.432 56.63,36.575 56.63,29 C56.63,21.425 53.56,14.568 48.596,9.604 L48.596,9.604 Z" id="Fill-2" fill="#D19E30"></path>
                <path d="M29.2,0.032 C35.4,0.032 41,3.304 45.041,8.595 C49.037,13.826 51.509,21.042 51.509,29 C51.509,36.959 49.037,44.174 45.041,49.406 C41,54.696 35.4,57.968 29.2,57.968 C23,57.968 17.4,54.696 13.359,49.406 C9.363,44.174 6.891,36.959 6.891,29 C6.891,21.042 9.363,13.826 13.359,8.595 C17.4,3.304 23,0.032 29.2,0.032 Z M43.821,9.526 C40.067,4.61 34.896,1.57 29.2,1.57 C23.504,1.57 18.333,4.61 14.579,9.526 C10.779,14.5 8.429,21.385 8.429,29 C8.429,36.615 10.779,43.5 14.579,48.474 C18.333,53.39 23.504,56.43 29.2,56.43 C34.896,56.43 40.067,53.39 43.821,48.474 C47.621,43.5 49.971,36.615 49.971,29 C49.971,21.385 47.621,14.5 43.821,9.526 L43.821,9.526 Z" id="Fill-3" fill="#D19E30"></path>
                <path d="M29.2,0.032 C33.617,0.032 37.574,3.346 40.401,8.703 C43.15,13.911 44.85,21.089 44.85,29 C44.85,36.912 43.15,44.089 40.401,49.297 C37.574,54.654 33.617,57.968 29.2,57.968 C24.783,57.968 20.826,54.654 17.999,49.297 C15.25,44.089 13.55,36.912 13.55,29 C13.55,21.089 15.25,13.911 17.999,8.703 C20.826,3.346 24.783,0.032 29.2,0.032 Z M39.044,9.418 C36.485,4.569 33.001,1.57 29.2,1.57 C25.399,1.57 21.915,4.569 19.356,9.418 C16.719,14.415 15.088,21.338 15.088,29 C15.088,36.662 16.719,43.585 19.356,48.582 C21.915,53.431 25.399,56.43 29.2,56.43 C33.001,56.43 36.485,53.431 39.044,48.582 C41.681,43.585 43.312,36.662 43.312,29 C43.312,21.338 41.681,14.415 39.044,9.418 L39.044,9.418 Z" id="Fill-4" fill="#D19E30"></path>
                <path d="M29.2,0.032 C31.853,0.032 34.162,3.401 35.75,8.847 C37.258,14.02 38.191,21.147 38.191,29 C38.191,36.853 37.258,43.98 35.75,49.153 C34.162,54.599 31.853,57.968 29.2,57.968 C26.547,57.968 24.238,54.599 22.65,49.153 C21.142,43.98 20.209,36.853 20.209,29 C20.209,21.147 21.142,14.02 22.65,8.847 C24.238,3.401 26.547,0.032 29.2,0.032 Z M34.278,9.274 C32.89,4.514 31.088,1.57 29.2,1.57 C27.312,1.57 25.51,4.514 24.122,9.274 C22.654,14.306 21.747,21.28 21.747,29 C21.747,36.721 22.654,43.694 24.122,48.727 C25.51,53.486 27.312,56.43 29.2,56.43 C31.088,56.43 32.89,53.486 34.278,48.727 C35.745,43.694 36.653,36.721 36.653,29 C36.653,21.28 35.745,14.306 34.278,9.274 L34.278,9.274 Z" id="Fill-5" fill="#D19E30"></path>
                <path d="M29.2,0.032 C30.115,0.032 30.763,3.466 31.071,9.019 C31.356,14.156 31.532,21.222 31.532,29 C31.532,36.778 31.356,43.844 31.071,48.982 C30.763,54.534 30.115,57.968 29.2,57.968 C28.285,57.968 27.637,54.534 27.329,48.982 C27.044,43.844 26.868,36.778 26.868,29 C26.868,21.222 27.044,14.156 27.329,9.019 C27.637,3.466 28.285,0.032 29.2,0.032 Z M29.54,9.103 C29.282,4.449 29.252,1.57 29.2,1.57 C29.148,1.57 29.118,4.449 28.86,9.103 C28.58,14.171 28.406,21.204 28.406,29 C28.406,36.796 28.58,43.829 28.86,48.898 C29.118,53.551 29.148,56.43 29.2,56.43 C29.252,56.43 29.282,53.551 29.54,48.898 C29.82,43.829 29.994,36.796 29.994,29 C29.994,21.204 29.82,14.171 29.54,9.103 L29.54,9.103 Z" id="Fill-6" fill="#D19E30"></path>
                <path d="M39.74,25.702 L36.527,26.611 L36.527,33.932 L35.241,33.932 L35.241,42.897 L29.971,48.176 L29.971,49.721 L29.2,48.949 L28.429,49.721 L28.429,48.176 L23.159,42.897 L23.159,33.932 L21.872,33.932 L21.872,26.611 L13.478,24.236 L13.478,11.726 L44.922,11.726 L44.922,20.476 C46.212,19.968 47.699,19.696 49.376,19.696 C54.346,19.696 57.643,22.084 59.103,25.934 C60.562,22.084 63.859,19.696 68.829,19.696 C73.497,19.696 76.689,21.802 78.269,25.248 L78.269,22.958 C78.269,21.301 79.616,19.953 81.274,19.953 L84.106,19.953 C85.763,19.953 87.11,21.301 87.11,22.958 L87.11,37.982 C87.11,37.989 87.11,37.997 87.11,38.005 L92.173,38.005 C92.471,38.005 92.759,38.049 93.03,38.13 L93.03,23.359 C93.03,21.53 94.276,20.361 96.011,20.096 C97.956,19.798 100.019,19.696 101.985,19.696 C105.707,19.696 109.025,20.754 110.939,23.199 L110.939,22.958 C110.939,21.301 112.286,19.953 113.944,19.953 L116.775,19.953 C118.433,19.953 119.78,21.301 119.78,22.958 L119.78,37.982 C119.78,37.989 119.78,37.997 119.78,38.005 L124.843,38.005 C125.011,38.005 125.176,38.019 125.337,38.045 L128.898,24.431 C129.721,21.286 132.075,19.696 135.228,19.696 C138.38,19.696 140.734,21.286 141.557,24.431 L143.609,32.274 L143.609,30.882 C143.609,24.247 147.375,19.696 154.137,19.696 C155.663,19.696 157.796,19.838 159.285,20.236 L159.328,20.248 L159.371,20.261 C160.614,20.642 161.511,21.515 161.688,22.778 C163.206,20.627 165.883,19.696 169.328,19.696 C171.401,19.696 173.11,19.808 175.087,20.118 C176.703,20.335 177.768,21.483 177.768,23.13 L177.768,24.961 C177.768,26.618 176.421,27.965 174.764,27.965 L169.1,27.965 C169.1,27.975 169.1,27.984 169.1,27.993 L169.1,28.65 L174.42,28.65 C176.077,28.65 177.425,29.998 177.425,31.655 L177.425,33.714 C177.425,35.372 176.078,36.719 174.42,36.719 L169.1,36.719 L169.1,37.977 C169.1,37.986 169.1,37.995 169.1,38.005 L174.764,38.005 C176.421,38.005 177.768,39.352 177.768,41.009 L177.768,42.84 C177.768,44.488 176.701,45.637 175.139,45.844 C173.11,46.161 171.401,46.274 169.328,46.274 C165.883,46.274 163.206,45.343 161.688,43.192 C161.511,44.454 160.615,45.326 159.374,45.709 L159.329,45.722 L159.283,45.734 C157.793,46.132 155.664,46.274 154.137,46.274 C150.784,46.274 148.151,45.117 146.357,43.14 C146.35,44.767 145.029,46.045 143.409,46.045 L140.377,46.045 C138.965,46.045 137.76,45.014 137.47,43.699 L136.604,40.124 L133.851,40.124 L132.996,43.652 C132.695,45.014 131.49,46.045 130.078,46.045 L127.046,46.045 C126.564,46.045 126.108,45.932 125.705,45.73 C125.595,45.763 125.48,45.793 125.363,45.817 C123.874,46.158 121.522,46.274 119.98,46.274 C114.482,46.274 110.939,43.904 110.939,37.982 L110.939,34.582 C109.028,37.049 105.714,38.149 101.985,38.149 C101.947,38.149 101.909,38.149 101.872,38.149 L101.872,43.041 C101.872,44.694 100.558,46.045 98.896,46.045 L96.035,46.045 C95.255,46.045 94.543,45.747 94.008,45.257 C93.641,45.522 93.197,45.711 92.693,45.817 C91.204,46.158 88.853,46.274 87.31,46.274 C82.577,46.274 79.294,44.518 78.471,40.253 C76.971,43.976 73.705,46.274 68.829,46.274 C63.859,46.274 60.562,43.886 59.103,40.036 C57.643,43.886 54.346,46.274 49.376,46.274 C42.466,46.274 38.79,41.659 38.79,34.916 L38.79,31.054 C38.79,29.063 39.111,27.258 39.74,25.702 Z M160.289,27.779 C159.84,28.044 159.305,28.194 158.714,28.194 C158.695,28.194 158.676,28.194 158.657,28.194 L158.553,28.194 L158.449,28.185 C157.047,28.065 155.601,27.965 154.194,27.965 C153.896,27.965 153.488,27.996 153.222,28.149 C152.545,28.537 152.479,30.247 152.479,30.882 L152.479,35.088 C152.479,35.754 152.553,37.418 153.256,37.821 C153.518,37.971 153.899,38.005 154.194,38.005 C155.601,38.005 157.047,37.905 158.45,37.785 L158.553,37.776 L158.657,37.776 C158.676,37.776 158.695,37.776 158.714,37.776 C159.305,37.776 159.84,37.926 160.289,38.191 C160.288,38.121 160.287,38.049 160.287,37.977 L160.287,27.993 C160.287,27.921 160.288,27.85 160.289,27.779 Z M51.091,34.916 L51.091,31.054 C51.091,30.418 51.025,28.704 50.442,28.255 C50.182,28.055 49.685,28.022 49.376,28.022 C49.067,28.022 48.569,28.055 48.309,28.255 C47.726,28.704 47.66,30.418 47.66,31.054 L47.66,34.916 C47.66,35.552 47.726,37.266 48.31,37.715 C48.569,37.915 49.067,37.948 49.376,37.948 C49.685,37.948 50.182,37.915 50.442,37.715 C51.025,37.266 51.091,35.552 51.091,34.916 Z M70.544,34.916 L70.544,31.054 C70.544,30.418 70.478,28.704 69.895,28.255 C69.636,28.055 69.138,28.022 68.829,28.022 C68.52,28.022 68.022,28.055 67.763,28.255 C67.18,28.704 67.113,30.418 67.113,31.054 L67.113,34.916 C67.113,35.552 67.18,37.266 67.763,37.715 C68.023,37.915 68.52,37.948 68.829,37.948 C69.138,37.948 69.635,37.915 69.895,37.715 C70.478,37.266 70.544,35.552 70.544,34.916 Z M101.872,27.851 L101.872,30.023 C101.91,30.023 101.947,30.023 101.985,30.023 C102.25,30.023 103.544,29.967 103.735,29.723 C103.824,29.608 103.844,29.142 103.844,29.008 L103.844,28.751 C103.844,28.626 103.831,28.247 103.757,28.135 C103.502,27.893 102.307,27.851 101.985,27.851 C101.948,27.851 101.91,27.851 101.872,27.851 Z M29.2,19.967 L30.176,19.696 L28.224,19.696 L29.2,19.967 L29.2,19.967 Z" id="Fill-7" fill="#F7F7F7"></path>
                <path d="M57.529,34.916 L57.529,31.054 C57.529,24.76 54.096,22.128 49.376,22.128 C44.656,22.128 41.223,24.76 41.223,31.054 L41.223,34.916 C41.223,41.21 44.656,43.841 49.376,43.841 C54.096,43.841 57.529,41.21 57.529,34.916 Z M53.524,34.916 C53.524,38.692 52.179,40.38 49.376,40.38 C46.572,40.38 45.228,38.692 45.228,34.916 L45.228,31.054 C45.228,27.278 46.572,25.59 49.376,25.59 C52.179,25.59 53.524,27.278 53.524,31.054 L53.524,34.916 L53.524,34.916 Z" id="Fill-8" fill="#072A4A"></path>
                <path d="M76.982,34.916 L76.982,31.054 C76.982,24.76 73.549,22.128 68.829,22.128 C64.109,22.128 60.676,24.76 60.676,31.054 L60.676,34.916 C60.676,41.21 64.109,43.841 68.829,43.841 C73.549,43.841 76.982,41.21 76.982,34.916 Z M72.977,34.916 C72.977,38.692 71.633,40.38 68.829,40.38 C66.025,40.38 64.681,38.692 64.681,34.916 L64.681,31.054 C64.681,27.278 66.025,25.59 68.829,25.59 C71.633,25.59 72.977,27.278 72.977,31.054 L72.977,34.916 L72.977,34.916 Z" id="Fill-9" fill="#072A4A"></path>
                <path d="M92.745,42.84 L92.745,41.009 C92.745,40.695 92.488,40.437 92.173,40.437 L86.909,40.437 C85.25,40.437 84.678,39.87 84.678,37.982 L84.678,22.958 C84.678,22.643 84.421,22.386 84.106,22.386 L81.274,22.386 C80.959,22.386 80.701,22.643 80.701,22.958 L80.701,37.982 C80.701,42.84 83.591,43.841 87.31,43.841 C88.826,43.841 91.315,43.641 92.173,43.441 C92.602,43.355 92.745,43.241 92.745,42.84" id="Fill-10" fill="#072A4A"></path>
                <path d="M110.224,29.008 L110.224,28.751 C110.224,23.673 106.391,22.128 101.985,22.128 C99.897,22.128 97.866,22.271 96.378,22.501 C95.806,22.586 95.463,22.786 95.463,23.359 L95.463,43.041 C95.463,43.355 95.72,43.613 96.035,43.613 L98.896,43.613 C99.21,43.613 99.439,43.355 99.439,43.041 L99.439,35.603 C100.097,35.631 101.242,35.717 101.985,35.717 C106.391,35.717 110.224,34.087 110.224,29.008 Z M106.277,29.008 C106.277,31.307 105.075,32.456 101.985,32.456 C101.499,32.456 99.897,32.399 99.439,32.37 L99.439,25.532 C99.954,25.476 101.385,25.418 101.985,25.418 C104.846,25.418 106.277,26.338 106.277,28.751 L106.277,29.008 L106.277,29.008 Z" id="Fill-11" fill="#072A4A"></path>
                <path d="M125.415,42.84 L125.415,41.009 C125.415,40.695 125.158,40.437 124.843,40.437 L119.579,40.437 C117.92,40.437 117.348,39.87 117.348,37.982 L117.348,22.958 C117.348,22.643 117.09,22.386 116.775,22.386 L113.943,22.386 C113.629,22.386 113.371,22.643 113.371,22.958 L113.371,37.982 C113.371,42.84 116.261,43.841 119.98,43.841 C121.496,43.841 123.985,43.641 124.843,43.441 C125.272,43.355 125.415,43.241 125.415,42.84" id="Fill-12" fill="#072A4A"></path>
                <path d="M143.924,43.127 C143.924,43.098 143.896,43.041 143.896,42.983 L139.204,25.046 C138.517,22.386 136.458,22.128 135.227,22.128 C133.998,22.128 131.938,22.386 131.251,25.046 L126.559,42.983 C126.559,43.041 126.531,43.098 126.531,43.127 C126.531,43.412 126.76,43.613 127.046,43.613 L130.078,43.613 C130.336,43.613 130.565,43.384 130.622,43.127 L131.938,37.691 L138.517,37.691 L139.833,43.127 C139.891,43.384 140.119,43.613 140.377,43.613 L143.409,43.613 C143.696,43.613 143.924,43.412 143.924,43.127 Z M137.745,34.43 L132.71,34.43 L134.77,25.933 C134.856,25.59 134.942,25.476 135.227,25.476 C135.514,25.476 135.6,25.59 135.685,25.933 L137.745,34.43 L137.745,34.43 Z" id="Fill-13" fill="#072A4A"></path>
                <path d="M159.287,42.726 L159.287,40.809 C159.287,40.466 159.143,40.209 158.714,40.209 C158.714,40.209 158.686,40.209 158.657,40.209 C157.656,40.294 155.711,40.437 154.194,40.437 C151.792,40.437 150.046,39.064 150.046,35.087 L150.046,30.882 C150.046,26.82 151.792,25.532 154.194,25.532 C155.711,25.532 157.656,25.676 158.657,25.762 C158.686,25.762 158.714,25.762 158.714,25.762 C159.143,25.762 159.287,25.504 159.287,25.161 L159.287,23.244 C159.287,22.844 159.029,22.7 158.657,22.586 C158.228,22.472 156.34,22.128 154.137,22.128 C150.704,22.128 146.041,23.702 146.041,30.882 L146.041,35.087 C146.041,42.154 150.704,43.841 154.137,43.841 C156.34,43.841 158.228,43.498 158.657,43.384 C159.029,43.269 159.287,43.127 159.287,42.726" id="Fill-14" fill="#072A4A"></path>
                <path d="M175.336,42.84 L175.336,41.009 C175.336,40.695 175.078,40.437 174.764,40.437 L168.928,40.437 C167.268,40.437 166.668,39.865 166.668,37.977 L166.668,34.287 L174.42,34.287 C174.735,34.287 174.992,34.029 174.992,33.714 L174.992,31.655 C174.992,31.34 174.735,31.083 174.42,31.083 L166.668,31.083 L166.668,27.993 C166.668,26.105 167.268,25.532 168.928,25.532 L174.764,25.532 C175.078,25.532 175.336,25.275 175.336,24.96 L175.336,23.13 C175.336,22.729 175.193,22.586 174.764,22.529 C173.848,22.386 172.732,22.128 169.328,22.128 C165.609,22.128 162.72,23.13 162.72,27.993 L162.72,37.977 C162.72,42.84 165.609,43.841 169.328,43.841 C172.732,43.841 173.848,43.584 174.764,43.441 C175.193,43.384 175.336,43.241 175.336,42.84" id="Fill-15" fill="#072A4A"></path>
                <polyline id="Fill-16" fill="#072A4A" points="25.591 31.5 25.591 41.891 27.539 43.841 27.539 22.03 20.136 19.976 20.136 17.264 38.264 17.264 38.264 19.976 30.861 22.03 30.861 43.841 32.808 41.891 32.808 31.5 34.095 31.5 34.095 24.772 42.489 22.396 42.489 14.159 15.911 14.159 15.911 22.396 24.305 24.772 24.305 31.5 25.591 31.5"></polyline>
            </g>
        </g>
    </g>
</svg>